<svg id="visual" viewBox="0 0 1920 1000" width="1920" height="1000" xmlns="http://www.w3.org/2000/svg" xmlns:xlink="http://www.w3.org/1999/xlink" version="1.1"><rect x="0" y="0" width="1920" height="1000" fill="#183218"></rect><defs><linearGradient id="grad1_0" x1="47.9%" y1="0%" x2="100%" y2="100%"><stop offset="11.600000000000001%" stop-color="#183218" stop-opacity="1"></stop><stop offset="88.4%" stop-color="#183218" stop-opacity="1"></stop></linearGradient></defs><defs><linearGradient id="grad2_0" x1="0%" y1="0%" x2="52.1%" y2="100%"><stop offset="11.600000000000001%" stop-color="#183218" stop-opacity="1"></stop><stop offset="88.4%" stop-color="#183218" stop-opacity="1"></stop></linearGradient></defs><g transform="translate(1920, 0)"><path d="M0 500C-46.4 416.8 -92.9 333.5 -174.5 302.2C-256.1 271 -372.9 291.7 -433 250C-493.1 208.3 -496.6 104.1 -500 0L0 0Z" fill="#3E7E3E"></path></g><g transform="translate(0, 1000)"><path d="M0 -500C41.1 -407.5 82.2 -315 164.5 -284.9C246.8 -254.8 370.2 -287.1 433 -250C495.8 -212.9 497.9 -106.5 500 0L0 0Z" fill="#3E7E3E"></path></g></svg>