<?xml version="1.0" encoding="UTF-8" standalone="no"?>
<!DOCTYPE svg PUBLIC "-//W3C//DTD SVG 1.1//EN" "http://www.w3.org/Graphics/SVG/1.1/DTD/svg11.dtd">
<svg xmlns="http://www.w3.org/2000/svg" version="1.1" viewBox="0.00 0.00 233.00 292.00">
<path fill="#3e7e3e" d="
  M 5.36 176.76
  C 0.14 132.00 4.02 73.16 38.41 39.15
  C 67.53 10.35 112.76 -0.80 152.77 4.14
  C 177.91 7.25 208.66 18.20 221.56 42.05
  C 232.19 61.69 228.31 88.63 223.86 109.24
  C 220.23 126.08 216.71 141.82 213.15 159.82
  Q 210.30 174.27 206.26 190.47
  Q 194.71 236.79 160.73 269.45
  Q 156.02 273.97 147.47 279.26
  C 132.65 288.41 116.88 292.08 99.51 289.57
  Q 90.73 288.30 80.34 284.12
  C 34.29 265.64 10.94 224.66 5.36 176.76
  Z"
/>
</svg>
