<svg id="visual" viewBox="0 0 1903 450" width="1903" height="450" xmlns="http://www.w3.org/2000/svg" xmlns:xlink="http://www.w3.org/1999/xlink" version="1.1"><rect width="1903" height="450" fill="#3e7e3e"></rect><g><g transform="translate(905 307)"><path d="M128.7 -34.6C146.6 13.3 127 80.6 84.2 110.4C41.4 140.2 -24.7 132.6 -69.1 99.4C-113.4 66.2 -136 7.3 -120.9 -36.7C-105.7 -80.8 -52.9 -110 1.3 -110.4C55.4 -110.9 110.8 -82.4 128.7 -34.6Z" stroke="#003a00" fill="none" stroke-width="20"></path></g><g transform="translate(1390 300)"><path d="M109.9 -37C125.3 11.6 108.8 69.3 70.4 97.3C32 125.3 -28.2 123.6 -65.1 95.4C-101.9 67.3 -115.3 12.7 -100.6 -35.1C-85.8 -82.8 -42.9 -123.8 2.2 -124.6C47.3 -125.3 94.5 -85.7 109.9 -37Z" stroke="#003a00" fill="none" stroke-width="20"></path></g><g transform="translate(489 93)"><path d="M85.5 -27.9C95.1 1.7 76.3 40.5 47.3 60.5C18.2 80.5 -21.1 81.8 -47.7 63.1C-74.3 44.4 -88.1 5.6 -78 -24.6C-68 -54.8 -34 -76.6 2 -77.2C38 -77.9 75.9 -57.4 85.5 -27.9Z" stroke="#003a00" fill="none" stroke-width="20"></path></g><g transform="translate(192 411)"><path d="M76.7 -21.6C86.7 5.9 73.4 44.4 47.9 61.9C22.5 79.5 -15.2 76.1 -40.5 57.4C-65.9 38.6 -78.8 4.4 -70 -21.5C-61.2 -47.4 -30.6 -65 1.4 -65.5C33.3 -65.9 66.7 -49.2 76.7 -21.6Z" stroke="#003a00" fill="none" stroke-width="20"></path></g><g transform="translate(1717 23)"><path d="M52.7 -16.7C60.5 7 53.8 35.8 34.4 50.6C15.1 65.4 -16.7 66.1 -36.9 51.3C-57.1 36.5 -65.6 6.2 -57.5 -17.8C-49.4 -41.9 -24.7 -59.8 -1.1 -59.4C22.4 -59 44.9 -40.4 52.7 -16.7Z" stroke="#003a00" fill="none" stroke-width="20"></path></g></g></svg>