<?xml version="1.0" encoding="UTF-8" standalone="no"?>
<!DOCTYPE svg PUBLIC "-//W3C//DTD SVG 1.1//EN" "http://www.w3.org/Graphics/SVG/1.1/DTD/svg11.dtd">
<svg xmlns="http://www.w3.org/2000/svg" version="1.1" viewBox="0.00 0.00 436.00 61.00">
<path fill="#3E7E3E" d="
  M 70.44 12.23
  C 72.41 3.14 82.83 -0.19 89.32 6.67
  C 96.52 14.27 89.30 26.79 79.04 24.62
  Q 72.31 23.20 70.31 16.02
  Q 70.18 15.55 69.69 15.54
  Q 58.63 15.26 55.75 15.53
  C 39.98 17.02 61.51 48.23 37.15 48.46
  Q 31.86 48.51 26.54 48.42
  Q 26.00 48.41 25.88 48.93
  Q 24.40 55.17 19.53 57.23
  C 9.78 61.35 0.15 50.33 5.64 41.17
  Q 7.78 37.59 11.85 36.51
  C 18.47 34.75 24.40 38.45 25.86 45.27
  Q 25.96 45.78 26.48 45.78
  Q 36.94 45.91 39.73 45.75
  C 44.84 45.47 46.74 41.90 46.78 36.99
  Q 46.83 31.77 46.81 26.56
  C 46.78 20.48 47.05 15.96 52.65 13.66
  C 56.91 11.92 64.95 12.80 69.77 12.77
  Q 70.32 12.77 70.44 12.23
  Z
  M 89.42 14.00
  A 8.22 8.22 0.0 0 0 81.20 5.78
  A 8.22 8.22 0.0 0 0 72.98 14.00
  A 8.22 8.22 0.0 0 0 81.20 22.22
  A 8.22 8.22 0.0 0 0 89.42 14.00
  Z
  M 23.26 47.00
  A 8.23 8.23 0.0 0 0 15.03 38.77
  A 8.23 8.23 0.0 0 0 6.80 47.00
  A 8.23 8.23 0.0 0 0 15.03 55.23
  A 8.23 8.23 0.0 0 0 23.26 47.00
  Z"
/>
<path fill="#3E7E3E" d="
  M 279.10 24.49
  C 280.04 23.84 280.59 22.60 281.44 22.00
  C 290.64 15.56 301.18 21.51 301.68 32.26
  Q 301.96 38.31 301.73 52.96
  Q 301.72 53.49 301.20 53.49
  L 292.21 53.48
  Q 291.55 53.48 291.55 52.81
  Q 291.65 44.08 291.77 35.52
  C 291.91 26.44 284.18 25.71 279.90 31.83
  Q 278.65 33.62 278.65 36.97
  Q 278.64 44.91 278.64 52.84
  Q 278.64 53.47 278.00 53.48
  L 268.97 53.48
  Q 268.45 53.48 268.45 52.97
  L 268.43 8.42
  A 0.65 0.64 0.0 0 1 269.08 7.78
  L 278.02 7.77
  A 0.62 0.62 0.0 0 1 278.64 8.39
  L 278.64 24.25
  Q 278.64 24.81 279.10 24.49
  Z"
/>
<rect fill="#3E7E3E" x="-5.11" y="-4.23" transform="translate(353.32,12.01) rotate(-0.1)" width="10.22" height="8.46" rx="0.46"/>
<path fill="#3E7E3E" d="
  M 126.46 40.20
  A 0.39 0.39 0.0 0 0 126.10 40.75
  C 128.85 46.96 136.42 46.07 141.36 43.79
  Q 141.88 43.55 142.28 43.94
  L 146.74 48.26
  A 1.14 1.14 0.0 0 1 146.59 50.02
  C 138.32 55.66 126.67 55.59 119.76 48.15
  C 114.44 42.43 113.98 32.42 118.80 26.27
  C 126.58 16.38 143.21 16.82 148.22 29.38
  Q 150.15 34.21 149.34 39.71
  Q 149.26 40.23 148.73 40.23
  L 126.46 40.20
  Z
  M 126.29 33.01
  L 139.97 33.01
  A 0.01 0.01 0.0 0 0 139.98 33.00
  L 139.98 32.95
  A 6.74 4.78 0.0 0 0 133.24 28.17
  L 133.02 28.17
  A 6.74 4.78 -0.0 0 0 126.28 32.95
  L 126.28 33.00
  A 0.01 0.01 0.0 0 0 126.29 33.01
  Z"
/>
<path fill="#3E7E3E" d="
  M 166.84 30.43
  C 158.97 37.79 168.50 50.29 178.12 42.59
  Q 178.52 42.27 178.99 42.49
  L 185.78 45.71
  Q 186.34 45.97 186.04 46.50
  C 181.24 55.21 168.59 55.71 161.20 50.54
  C 148.37 41.55 154.06 21.89 169.24 19.49
  Q 179.89 17.80 185.96 26.75
  A 0.50 0.50 0.0 0 1 185.75 27.48
  L 178.99 30.53
  Q 178.55 30.73 178.16 30.45
  Q 171.66 25.92 166.84 30.43
  Z"
/>
<path fill="#3E7E3E" d="
  M 226.2483 36.4515
  A 17.80 17.34 -0.8 0 1 208.6921 54.0383
  A 17.80 17.34 -0.8 0 1 190.6517 36.9485
  A 17.80 17.34 -0.8 0 1 208.2079 19.3617
  A 17.80 17.34 -0.8 0 1 226.2483 36.4515
  Z
  M 208.5981 45.1692
  A 8.46 7.94 89.2 0 0 216.4192 36.5991
  A 8.46 7.94 89.2 0 0 208.3619 28.2508
  A 8.46 7.94 89.2 0 0 200.5408 36.8209
  A 8.46 7.94 89.2 0 0 208.5981 45.1692
  Z"
/>
<path fill="#3E7E3E" d="
  M 231.97 42.59
  C 228.42 32.20 234.46 21.55 245.26 19.61
  Q 254.94 17.88 262.16 25.64
  Q 263.44 27.01 261.73 27.78
  L 255.68 30.52
  Q 255.15 30.76 254.68 30.41
  C 247.96 25.33 239.28 30.01 240.86 38.55
  C 242.16 45.53 249.50 46.64 254.80 42.62
  Q 255.22 42.29 255.71 42.52
  L 262.49 45.71
  A 0.77 0.77 0.0 0 1 262.75 46.90
  Q 253.96 57.38 240.70 52.34
  Q 234.50 49.98 231.97 42.59
  Z"
/>
<path fill="#3E7E3E" d="
  M 342.5181 37.3715
  A 17.78 17.34 2.1 0 1 324.1146 54.0484
  A 17.78 17.34 2.1 0 1 306.9819 36.0685
  A 17.78 17.34 2.1 0 1 325.3854 19.3916
  A 17.78 17.34 2.1 0 1 342.5181 37.3715
  Z
  M 324.5541 45.1267
  A 8.45 7.94 91.6 0 0 332.7269 36.9017
  A 8.45 7.94 91.6 0 0 325.0259 28.2333
  A 8.45 7.94 91.6 0 0 316.8531 36.4583
  A 8.45 7.94 91.6 0 0 324.5541 45.1267
  Z"
/>
<path fill="#3E7E3E" d="
  M 389.29 30.29
  Q 387.73 30.80 386.58 29.46
  A 1.51 1.49 78.4 0 0 385.89 29.00
  Q 378.83 26.72 375.51 31.57
  C 369.69 40.08 379.57 49.50 387.97 42.65
  Q 388.42 42.29 388.94 42.53
  L 395.60 45.68
  A 0.70 0.69 -60.7 0 1 395.88 46.69
  C 387.45 59.29 366.64 54.79 364.19 39.41
  C 361.35 21.53 385.55 11.39 395.79 26.82
  Q 396.04 27.20 395.64 27.40
  Q 391.21 29.67 389.29 30.29
  Z"
/>
<path fill="#3E7E3E" d="
  M 409.47 40.66
  C 411.61 46.91 419.73 46.10 424.59 43.71
  A 0.85 0.84 54.5 0 1 425.54 43.87
  L 430.31 48.53
  A 0.59 0.59 0.0 0 1 430.31 49.38
  C 425.55 54.01 418.12 54.81 412.02 53.31
  C 397.54 49.75 393.73 30.79 406.29 22.47
  C 411.05 19.32 416.77 18.29 422.24 20.44
  Q 434.18 25.11 432.66 39.65
  Q 432.60 40.23 432.01 40.23
  L 409.78 40.22
  Q 409.32 40.22 409.47 40.66
  Z
  M 409.40 32.42
  A 0.40 0.40 0.0 0 0 409.75 33.02
  L 422.99 33.01
  A 0.47 0.47 0.0 0 0 423.41 32.33
  C 420.35 26.37 412.71 26.68 409.40 32.42
  Z"
/>
<rect fill="#3E7E3E" x="348.22" y="19.76" width="10.20" height="33.72" rx="0.43"/>
</svg>
