<?xml version="1.0" encoding="UTF-8" standalone="no"?>
<!DOCTYPE svg PUBLIC "-//W3C//DTD SVG 1.1//EN" "http://www.w3.org/Graphics/SVG/1.1/DTD/svg11.dtd">
<svg xmlns="http://www.w3.org/2000/svg" version="1.1" viewBox="0.00 0.00 500.00 500.00">
<g stroke-width="2.00" fill="none" stroke-linecap="butt">
<path stroke="#9fbf9f" vector-effect="non-scaling-stroke" d="
  M 167.26 316.84
  A 1.83 1.83 0.0 0 1 168.97 315.77
  Q 193.74 316.39 218.50 315.71
  Q 226.45 315.49 234.10 311.98
  C 246.40 306.35 251.82 295.00 253.27 282.25
  C 255.04 266.72 253.28 250.18 253.03 234.21
  C 252.81 219.95 254.22 202.65 269.35 196.73
  Q 273.74 195.01 282.88 194.73
  Q 306.06 194.01 329.07 194.74
  A 1.21 1.20 81.3 0 1 330.18 195.56
  C 335.23 210.17 341.34 220.71 356.35 226.32
  C 394.00 240.38 427.25 197.41 403.35 165.17
  C 392.23 150.16 373.04 144.43 355.79 151.76
  Q 336.00 160.18 330.85 182.73
  A 2.39 2.38 6.5 0 1 328.51 184.59
  Q 307.78 184.51 286.50 184.62
  C 258.46 184.77 244.28 197.07 243.95 225.77
  Q 243.67 249.15 243.42 272.50
  Q 243.29 284.61 241.92 288.81
  C 237.73 301.67 225.85 305.31 213.25 305.78
  Q 195.13 306.44 169.75 306.18
  Q 168.46 306.16 167.26 305.39
  A 1.22 1.22 0.0 0 1 166.73 304.66
  C 160.60 281.41 138.76 264.11 114.65 271.74
  C 98.70 276.79 85.85 291.00 85.54 308.23
  C 85.19 327.89 99.23 345.71 118.56 349.70
  C 140.31 354.18 158.03 343.44 164.97 322.77
  Q 166.06 319.52 167.26 316.84"
/>
<path stroke="#9fbf9f" vector-effect="non-scaling-stroke" d="
  M 401.05 189.02
  A 30.30 30.30 0.0 0 0 370.75 158.72
  A 30.30 30.30 0.0 0 0 340.45 189.02
  A 30.30 30.30 0.0 0 0 370.75 219.32
  A 30.30 30.30 0.0 0 0 401.05 189.02"
/>
<path stroke="#9fbf9f" vector-effect="non-scaling-stroke" d="
  M 156.72 310.60
  A 30.30 30.30 0.0 0 0 126.42 280.30
  A 30.30 30.30 0.0 0 0 96.12 310.60
  A 30.30 30.30 0.0 0 0 126.42 340.90
  A 30.30 30.30 0.0 0 0 156.72 310.60"
/>
</g>
<path fill="#3e7f3f" d="
  M 237.38 0.00
  L 263.27 0.00
  C 271.68 1.24 281.23 2.01 288.56 3.22
  C 338.07 11.40 384.86 33.71 421.17 68.47
  Q 492.74 136.98 499.52 237.89
  C 499.65 239.72 499.34 242.84 500.00 245.34
  L 500.00 255.75
  Q 499.04 272.48 496.47 288.99
  C 487.01 349.99 454.28 406.38 405.92 444.74
  Q 344.25 493.65 264.39 499.38
  Q 263.69 499.43 261.38 500.00
  L 244.00 500.00
  Q 223.21 498.73 210.27 496.51
  C 102.53 478.11 20.57 395.76 3.20 287.76
  Q 1.13 274.91 0.00 255.63
  L 0.00 243.50
  Q 1.54 221.84 3.22 211.73
  C 12.65 154.97 39.97 102.93 82.85 64.72
  Q 146.88 7.68 233.98 0.65
  Q 235.75 0.51 237.38 0.00
  Z
  M 167.26 316.84
  A 1.83 1.83 0.0 0 1 168.97 315.77
  Q 193.74 316.39 218.50 315.71
  Q 226.45 315.49 234.10 311.98
  C 246.40 306.35 251.82 295.00 253.27 282.25
  C 255.04 266.72 253.28 250.18 253.03 234.21
  C 252.81 219.95 254.22 202.65 269.35 196.73
  Q 273.74 195.01 282.88 194.73
  Q 306.06 194.01 329.07 194.74
  A 1.21 1.20 81.3 0 1 330.18 195.56
  C 335.23 210.17 341.34 220.71 356.35 226.32
  C 394.00 240.38 427.25 197.41 403.35 165.17
  C 392.23 150.16 373.04 144.43 355.79 151.76
  Q 336.00 160.18 330.85 182.73
  A 2.39 2.38 6.5 0 1 328.51 184.59
  Q 307.78 184.51 286.50 184.62
  C 258.46 184.77 244.28 197.07 243.95 225.77
  Q 243.67 249.15 243.42 272.50
  Q 243.29 284.61 241.92 288.81
  C 237.73 301.67 225.85 305.31 213.25 305.78
  Q 195.13 306.44 169.75 306.18
  Q 168.46 306.16 167.26 305.39
  A 1.22 1.22 0.0 0 1 166.73 304.66
  C 160.60 281.41 138.76 264.11 114.65 271.74
  C 98.70 276.79 85.85 291.00 85.54 308.23
  C 85.19 327.89 99.23 345.71 118.56 349.70
  C 140.31 354.18 158.03 343.44 164.97 322.77
  Q 166.06 319.52 167.26 316.84
  Z"
/>
<path fill="#ffffff" d="
  M 167.26 316.84
  Q 166.06 319.52 164.97 322.77
  C 158.03 343.44 140.31 354.18 118.56 349.70
  C 99.23 345.71 85.19 327.89 85.54 308.23
  C 85.85 291.00 98.70 276.79 114.65 271.74
  C 138.76 264.11 160.60 281.41 166.73 304.66
  A 1.22 1.22 0.0 0 0 167.26 305.39
  Q 168.46 306.16 169.75 306.18
  Q 195.13 306.44 213.25 305.78
  C 225.85 305.31 237.73 301.67 241.92 288.81
  Q 243.29 284.61 243.42 272.50
  Q 243.67 249.15 243.95 225.77
  C 244.28 197.07 258.46 184.77 286.50 184.62
  Q 307.78 184.51 328.51 184.59
  A 2.39 2.38 6.5 0 0 330.85 182.73
  Q 336.00 160.18 355.79 151.76
  C 373.04 144.43 392.23 150.16 403.35 165.17
  C 427.25 197.41 394.00 240.38 356.35 226.32
  C 341.34 220.71 335.23 210.17 330.18 195.56
  A 1.21 1.20 81.3 0 0 329.07 194.74
  Q 306.06 194.01 282.88 194.73
  Q 273.74 195.01 269.35 196.73
  C 254.22 202.65 252.81 219.95 253.03 234.21
  C 253.28 250.18 255.04 266.72 253.27 282.25
  C 251.82 295.00 246.40 306.35 234.10 311.98
  Q 226.45 315.49 218.50 315.71
  Q 193.74 316.39 168.97 315.77
  A 1.83 1.83 0.0 0 0 167.26 316.84
  Z
  M 401.05 189.02
  A 30.30 30.30 0.0 0 0 370.75 158.72
  A 30.30 30.30 0.0 0 0 340.45 189.02
  A 30.30 30.30 0.0 0 0 370.75 219.32
  A 30.30 30.30 0.0 0 0 401.05 189.02
  Z
  M 156.72 310.60
  A 30.30 30.30 0.0 0 0 126.42 280.30
  A 30.30 30.30 0.0 0 0 96.12 310.60
  A 30.30 30.30 0.0 0 0 126.42 340.90
  A 30.30 30.30 0.0 0 0 156.72 310.60
  Z"
/>
<circle fill="#3e7f3f" cx="370.75" cy="189.02" r="30.30"/>
<circle fill="#3e7f3f" cx="126.42" cy="310.60" r="30.30"/>
</svg>
